# xmcd
#
# Track frame offsets: 
#        150
#        9010
#        19867
#        28305
#        40399
#        50918
#        60022
#        68985
#        78670
#        88449
#        98931
#        108438
#        117917
#        128577
#        138252
#        149006
#        157969
#        166571
#        176950
#        188669
#        196863
#        205263
#        216054
#        224792
#        234767
#        244724
#        253649
#        264187
#        274462
#        284428
#
# Disc length: 3895 seconds
#
# Revision: 1
# Processed by: cddbd v1.5.2PL0 Copyright (c) Steve Scherf et al.
# Submitted via: ExactAudioCopy v1.0b3
#
DISCID=b90f351e
DTITLE=Eddie Cochran - Eddie Cochran and Singin' To My Baby
DYEAR=2011
DGENRE=Rock
TTITLE0=C'Mon Everybody
TTITLE1=Three Steps To Heaven
TTITLE2=Cut Across Shorty
TTITLE3=Have I Told  You Lately That I Love You
TTITLE4=Hallelujah! I Love Her
TTITLE5=Sittin' In The Balcony
TTITLE6=Summertime Blues
TTITLE7=Lovin' Time
TTITLE8=Somethin' Else
TTITLE9=Tell My Why
TTITLE10=Teenage Heaven
TTITLE11=Drive -In Show
TTITLE12=Completely Sweet
TTITLE13=Undying Love
TTITLE14=I'm Alone Because I Love You
TTITLE15=Proud Of You
TTITLE16=Mean When I'm Mad
TTITLE17=Stockin's and Shoes
TTITLE18=Have I Told You Lately That I Love You
TTITLE19=Cradle Baby
TTITLE20=One Kiss
TTITLE21=Jeannie, Jeannie, Jeannie [Bonus Track]
TTITLE22=Pocketful Of Hearts [Bonus Track]
TTITLE23=Don't Ever Let Me Go [Bonus Track]
TTITLE24=Ah, Pretty Girl [Bonus Track]
TTITLE25=Boll Weevil Song [Bonus Track]
TTITLE26=Nervous Breakdown [Bonus Track]
TTITLE27=My Way [Bonus Track]
TTITLE28=Sweetie Pie [Bonus Track]
TTITLE29=Twenty-Flight Rock [Bonus Track]
EXTD=
EXTT0=
EXTT1=
EXTT2=
EXTT3=
EXTT4=
EXTT5=
EXTT6=
EXTT7=
EXTT8=
EXTT9=
EXTT10=
EXTT11=
EXTT12=
EXTT13=
EXTT14=
EXTT15=
EXTT16=
EXTT17=
EXTT18=
EXTT19=
EXTT20=
EXTT21=
EXTT22=
EXTT23=
EXTT24=
EXTT25=
EXTT26=
EXTT27=
EXTT28=
EXTT29=
PLAYORDER=
